# xmcd
#
# Track frame offsets:
# 150
# 16196
# 31391
# 43774
# 52024
# 68757
# 83804
# 97806
# 111390
# 123161
# 134376
# 148821
# 160537
# 174009
# 183293
# 192945
# 203662
# 217171
# 226252
# 247372
# 255942
# 272936
# 294914
# 311754
# 322246
# 340492
# 350174
#
# Disc length: 4709 seconds
#
#
# Revision: 0
# Processed by: cddbd v1.4PL0 Copyright (c) Steve Scherf et al.
# Submitted via: FreeRIP 2.00 
#
DISCID=9712631b
DTITLE=Varoius - USA Selected Sound
DYEAR=2001
DGENRE=National Folk
TTITLE0=Red Rock Canyon by Jerome Butch Baldassari
TTITLE1=Horseback Riding by Lars-Luis Linek
TTITLE2=You´re Frightening Me, Miss B. by Bunk Dogger
TTITLE3=Western Railways by Roy Henley
TTITLE4=Campfire by Lars-Luis Linek
TTITLE5=It was Raining by Abraham Wallenstein - Lars-Luis Linek
TTITLE6=I Go to Church on Sundays by Abraham Wallenstein - Lars-Luis Linek
TTITLE7=Cowboys Delight by Ingo di Franco - Nico Berthold
TTITLE8=Texas Special by Mark Scholz - Thomas Blug
TTITLE9=The Stagecoach Rag 2 by Robert Sharpless
TTITLE10=Blue Knickers by Robert Sharpless
TTITLE11=Cold Rain by Pete Dunn - Chris McCormick
TTITLE12=Straight Four by Pete Dunn - Chris McCormick
TTITLE13=O.K. Mr. Hillibilly (vocal version) by Roy Henley
TTITLE14=O.K. Mr. Hillibilly (instrumental version) by Roy Henley
TTITLE15=Getaway by Jerome Butch Baldassari
TTITLE16=Bluegrass Boogie by Jerome Butch Baldassari
TTITLE17=Cabbage Cooking by Roy Henley
TTITLE18=Johnnys´s Medley by Jerome Butch Baldassari
TTITLE19=Let´s Dance Susanna by Roy Henley
TTITLE20=Street Jam by Rolf A. Kruger
TTITLE21=So Good by Rolf A. Kruger
TTITLE22=Sunset Boulevard by Rolf A. Kruger
TTITLE23=See you in Texas by Mark Scholz - Thomas Blug
TTITLE24=First Step by Cayo Bernardy
TTITLE25=American Band March by Gerhard Trede 
TTITLE26=We Wish You A Merry Christmas by Jerome Butch Baldassari
EXTD=
EXTT0=
EXTT1=
EXTT2=
EXTT3=
EXTT4=
EXTT5=
EXTT6=
EXTT7=
EXTT8=
EXTT9=
EXTT10=
EXTT11=
EXTT12=
EXTT13=
EXTT14=
EXTT15=
EXTT16=
EXTT17=
EXTT18=
EXTT19=
EXTT20=
EXTT21=
EXTT22=
EXTT23=
EXTT24=
EXTT25=
EXTT26=
PLAYORDER=
